<?xml version="1.0" encoding="us-ascii" standalone="no"?><svg xmlns="http://www.w3.org/2000/svg" xmlns:xlink="http://www.w3.org/1999/xlink" contentStyleType="text/css" height="470px" preserveAspectRatio="none" style="width:435px;height:470px;background:#FFFFFF;" version="1.1" viewBox="0 0 435 470" width="435px" zoomAndPan="magnify"><defs/><g><!--class MainGUI--><g id="elem_MainGUI"><rect codeLine="9" fill="#F1F1F1" height="26.2969" id="MainGUI" rx="2.5" ry="2.5" style="stroke:#181818;stroke-width:0.5;" width="62" x="245" y="352.19"/><text fill="#000000" font-family="sans-serif" font-size="14" lengthAdjust="spacing" textLength="56" x="248" y="370.1851">MainGUI</text></g><!--class AnonyFrame--><g id="elem_AnonyFrame"><rect codeLine="15" fill="#F1F1F1" height="26.2969" id="AnonyFrame" rx="2.5" ry="2.5" style="stroke:#181818;stroke-width:0.5;" width="92" x="120" y="438.48"/><text fill="#000000" font-family="sans-serif" font-size="14" lengthAdjust="spacing" textLength="86" x="123" y="456.4751">AnonyFrame</text></g><!--class AnonyFace--><g id="elem_AnonyFace"><rect codeLine="19" fill="#F1F1F1" height="26.2969" id="AnonyFace" rx="2.5" ry="2.5" style="stroke:#181818;stroke-width:0.5;" width="82" x="247" y="438.48"/><text fill="#000000" font-family="sans-serif" font-size="14" lengthAdjust="spacing" textLength="76" x="250" y="456.4751">AnonyFace</text></g><!--class ChatServerGUI--><g id="elem_ChatServerGUI"><rect codeLine="23" fill="#F1F1F1" height="26.2969" id="ChatServerGUI" rx="2.5" ry="2.5" style="stroke:#181818;stroke-width:0.5;" width="106" x="7" y="352.19"/><text fill="#000000" font-family="sans-serif" font-size="14" lengthAdjust="spacing" textLength="100" x="10" y="370.1851">ChatServerGUI</text></g><!--class ChatServer--><g id="elem_ChatServer"><rect codeLine="27" fill="#F1F1F1" height="26.2969" id="ChatServer" rx="2.5" ry="2.5" style="stroke:#181818;stroke-width:0.5;" width="82" x="19" y="265.89"/><text fill="#000000" font-family="sans-serif" font-size="14" lengthAdjust="spacing" textLength="76" x="22" y="283.8851">ChatServer</text></g><!--class ChatJoinGUI--><g id="elem_ChatJoinGUI"><rect codeLine="31" fill="#F1F1F1" height="26.2969" id="ChatJoinGUI" rx="2.5" ry="2.5" style="stroke:#181818;stroke-width:0.5;" width="86" x="342" y="352.19"/><text fill="#000000" font-family="sans-serif" font-size="14" lengthAdjust="spacing" textLength="80" x="345" y="370.1851">ChatJoinGUI</text></g><!--class ChatJoin--><g id="elem_ChatJoin"><rect codeLine="35" fill="#F1F1F1" height="26.2969" id="ChatJoin" rx="2.5" ry="2.5" style="stroke:#181818;stroke-width:0.5;" width="62" x="354" y="179.59"/><text fill="#000000" font-family="sans-serif" font-size="14" lengthAdjust="spacing" textLength="56" x="357" y="197.5851">ChatJoin</text></g><!--class ChatClient--><g id="elem_ChatClient"><rect codeLine="39" fill="#F1F1F1" height="26.2969" id="ChatClient" rx="2.5" ry="2.5" style="stroke:#181818;stroke-width:0.5;" width="77" x="346.5" y="265.89"/><text fill="#000000" font-family="sans-serif" font-size="14" lengthAdjust="spacing" textLength="71" x="349.5" y="283.8851">ChatClient</text></g><!--class ChatGUI--><g id="elem_ChatGUI"><rect codeLine="44" fill="#F1F1F1" height="26.2969" id="ChatGUI" rx="2.5" ry="2.5" style="stroke:#181818;stroke-width:0.5;" width="62" x="148" y="352.19"/><text fill="#000000" font-family="sans-serif" font-size="14" lengthAdjust="spacing" textLength="56" x="151" y="370.1851">ChatGUI</text></g><!--class User--><g id="elem_User"><rect codeLine="48" fill="#F1F1F1" height="26.2969" id="User" rx="2.5" ry="2.5" style="stroke:#181818;stroke-width:0.5;" width="38" x="366" y="93.3"/><text fill="#000000" font-family="sans-serif" font-size="14" lengthAdjust="spacing" textLength="32" x="369" y="111.2951">User</text></g><!--class Root--><g id="elem_Root"><rect codeLine="52" fill="#F1F1F1" height="26.2969" id="Root" rx="2.5" ry="2.5" style="stroke:#181818;stroke-width:0.5;" width="39" x="365.5" y="7"/><text fill="#000000" font-family="sans-serif" font-size="14" lengthAdjust="spacing" textLength="33" x="368.5" y="24.9951">Root</text></g><!--link MainGUI to AnonyFrame--><g id="link_MainGUI_AnonyFrame"><path codeLine="56" d="M259.77,378.77 C238.97,394.71 217.4181,411.2324 196.5881,427.1924 " fill="none" id="MainGUI-to-AnonyFrame" style="stroke:#181818;stroke-width:1.0;"/><polygon fill="none" points="182.3,438.14,200.2373,431.9551,192.9389,422.4297,182.3,438.14" style="stroke:#181818;stroke-width:1.0;"/></g><!--link MainGUI to AnonyFace--><g id="link_MainGUI_AnonyFace"><path codeLine="57" d="M277.77,378.77 C280.04,394.71 281.4154,404.3593 283.6854,420.3193 " fill="none" id="MainGUI-to-AnonyFace" style="stroke:#181818;stroke-width:1.0;stroke-dasharray:7.0,7.0;"/><polygon fill="none" points="286.22,438.14,289.6256,419.4745,277.7451,421.1642,286.22,438.14" style="stroke:#181818;stroke-width:1.0;"/></g><!--link ChatServerGUI to AnonyFrame--><g id="link_ChatServerGUI_AnonyFrame"><path codeLine="59" d="M75.64,378.77 C95.68,394.71 116.1288,410.98 136.2088,426.94 " fill="none" id="ChatServerGUI-to-AnonyFrame" style="stroke:#181818;stroke-width:1.0;"/><polygon fill="none" points="150.3,438.14,139.9421,422.243,132.4755,431.6371,150.3,438.14" style="stroke:#181818;stroke-width:1.0;"/></g><!--link ChatServerGUI to AnonyFace--><g id="link_ChatServerGUI_AnonyFace"><path codeLine="60" d="M94.13,378.95 C137.24,394.89 194.0761,415.9102 237.1261,431.8202 " fill="none" id="ChatServerGUI-to-AnonyFace" style="stroke:#181818;stroke-width:1.0;stroke-dasharray:7.0,7.0;"/><polygon fill="none" points="254.01,438.06,239.2061,426.1923,235.0462,437.4482,254.01,438.06" style="stroke:#181818;stroke-width:1.0;"/></g><!--link ChatServer to ChatServerGUI--><g id="link_ChatServer_ChatServerGUI"><path codeLine="62" d="M60,292.48 C60,308.41 60,317.88 60,333.85 " fill="none" id="ChatServer-to-ChatServerGUI" style="stroke:#181818;stroke-width:1.0;"/><polygon fill="none" points="60,351.85,66,333.85,54,333.85,60,351.85" style="stroke:#181818;stroke-width:1.0;"/></g><!--link ChatJoinGUI to AnonyFrame--><g id="link_ChatJoinGUI_AnonyFrame"><path codeLine="64" d="M352.21,378.95 C310.81,394.89 256.7889,415.6848 215.4489,431.5948 " fill="none" id="ChatJoinGUI-to-AnonyFrame" style="stroke:#181818;stroke-width:1.0;"/><polygon fill="none" points="198.65,438.06,217.6039,437.1945,213.2938,425.9952,198.65,438.06" style="stroke:#181818;stroke-width:1.0;"/></g><!--link ChatJoinGUI to AnonyFace--><g id="link_ChatJoinGUI_AnonyFace"><path codeLine="65" d="M370.69,378.77 C352.35,394.71 334.328,410.3746 315.958,426.3346 " fill="none" id="ChatJoinGUI-to-AnonyFace" style="stroke:#181818;stroke-width:1.0;stroke-dasharray:7.0,7.0;"/><polygon fill="none" points="302.37,438.14,319.8931,430.864,312.0229,421.8053,302.37,438.14" style="stroke:#181818;stroke-width:1.0;"/></g><!--link ChatJoin to ChatClient--><g id="link_ChatJoin_ChatClient"><path codeLine="67" d="M385,206.18 C385,222.12 385,231.59 385,247.55 " fill="none" id="ChatJoin-to-ChatClient" style="stroke:#181818;stroke-width:1.0;"/><polygon fill="none" points="385,265.55,391,247.55,379,247.55,385,265.55" style="stroke:#181818;stroke-width:1.0;"/></g><!--link ChatClient to ChatJoinGUI--><g id="link_ChatClient_ChatJoinGUI"><path codeLine="69" d="M385,292.48 C385,308.41 385,317.88 385,333.85 " fill="none" id="ChatClient-to-ChatJoinGUI" style="stroke:#181818;stroke-width:1.0;"/><polygon fill="none" points="385,351.85,391,333.85,379,333.85,385,351.85" style="stroke:#181818;stroke-width:1.0;"/></g><!--link ChatGUI to AnonyFrame--><g id="link_ChatGUI_AnonyFrame"><path codeLine="71" d="M177.08,378.77 C174.62,394.71 173.1321,404.3901 170.6721,420.3501 " fill="none" id="ChatGUI-to-AnonyFrame" style="stroke:#181818;stroke-width:1.0;"/><polygon fill="none" points="167.93,438.14,176.602,421.2641,164.7421,419.4361,167.93,438.14" style="stroke:#181818;stroke-width:1.0;"/></g><!--link ChatGUI to AnonyFace--><g id="link_ChatGUI_AnonyFace"><path codeLine="72" d="M195.08,378.77 C215.69,394.71 236.9705,411.1692 257.6105,427.1292 " fill="none" id="ChatGUI-to-AnonyFace" style="stroke:#181818;stroke-width:1.0;stroke-dasharray:7.0,7.0;"/><polygon fill="none" points="271.85,438.14,261.2808,422.3827,253.9403,431.8757,271.85,438.14" style="stroke:#181818;stroke-width:1.0;"/></g><!--link User to ChatJoin--><g id="link_User_ChatJoin"><path codeLine="74" d="M385,119.88 C385,135.82 385,145.29 385,161.25 " fill="none" id="User-to-ChatJoin" style="stroke:#181818;stroke-width:1.0;"/><polygon fill="none" points="385,179.25,391,161.25,379,161.25,385,179.25" style="stroke:#181818;stroke-width:1.0;"/></g><!--link Root to User--><g id="link_Root_User"><path codeLine="76" d="M385,33.59 C385,49.52 385,58.99 385,74.95 " fill="none" id="Root-to-User" style="stroke:#181818;stroke-width:1.0;"/><polygon fill="none" points="385,92.95,391,74.95,379,74.95,385,92.95" style="stroke:#181818;stroke-width:1.0;"/></g><!--SRC=[hLDRJiCm4FpFAPOlYYYS05Mg8YWWG1M50xZfbgwKs96zHHJetR7Z98rJHqA8Jy_ixEpB9ojSaqHulavVfa-pXsl8Sc5CSWgtj4B0ekGT26PDoosZ0I5NK21lrCea6nTn41POB54VmHdfBCScuQ3Mmya1UXGaPwzty9K0V7b-3-SrEZeBK9B497Bwn5GLfP8esVH23FAsd6PCIZfgtxMQIYLtDreKs7Cx4AE57O5y0oRECIeNcLTVNP5ar6lxdap2m7GZU87w7VLnOm7NB_103ggQ0atrkfkFmPPHl-PAynY2W2VRKpSa5QN8Y7TZM2gLev10PgxfNJ3sb7Dx7YsqjTYpKXofzrx5zjTXHWEY0SMeOochweEoV3DbrQcJf3dPAm3y8CCsoZ-xtLLRYvHG2u-By4Jlh3h4e6l493uODvHEbYocVZL7H-2Wlqqd-zLKt89xbWxwVylcorzSV4ywdxB5BozRtFwk90d_KryLiiDQBmoYFTrSS2nnmyNILaVS9lLzUwQUGSlLMJmvP1MpgQuWI6CNvjPKOOvDVW00]--></g></svg>